<?xml version="1.0" encoding="UTF-8" standalone="no"?>
<!DOCTYPE svg PUBLIC "-//W3C//DTD SVG 1.1//EN"
 "http://www.w3.org/Graphics/SVG/1.1/DTD/svg11.dtd">
<!-- Generated by graphviz version 6.0.1 (20220911.1526)
 -->
<!-- Title: Gemcutter Pages: 1 -->
<svg width="3977pt" height="811pt"
 viewBox="0.00 0.00 3977.10 810.60" xmlns="http://www.w3.org/2000/svg" xmlns:xlink="http://www.w3.org/1999/xlink">
<g id="graph0" class="graph" transform="scale(1 1) rotate(0) translate(28.8 781.8)">
<title>Gemcutter</title>
<polygon fill="white" stroke="none" points="-28.8,28.8 -28.8,-781.8 3948.3,-781.8 3948.3,28.8 -28.8,28.8"/>
<text text-anchor="middle" x="1959.75" y="-738.6" font-family="Arial Bold" font-size="13.00">RubyGems.org domain model</text>
<!-- m_ApiKey -->
<g id="node1" class="node">
<title>m_ApiKey</title>
<path fill="none" stroke="black" d="M646,-151.5C646,-151.5 934,-151.5 934,-151.5 940,-151.5 946,-157.5 946,-163.5 946,-163.5 946,-318.5 946,-318.5 946,-324.5 940,-330.5 934,-330.5 934,-330.5 646,-330.5 646,-330.5 640,-330.5 634,-324.5 634,-318.5 634,-318.5 634,-163.5 634,-163.5 634,-157.5 640,-151.5 646,-151.5"/>
<text text-anchor="start" x="684.5" y="-238.2" font-family="Arial Bold" font-size="11.00">ApiKey</text>
<polyline fill="none" stroke="black" points="778,-151.5 778,-330.5"/>
<text text-anchor="start" x="785" y="-317" font-family="Arial" font-size="10.00">access_webhooks </text>
<text text-anchor="start" x="870" y="-317" font-family="Arial Italic" font-size="10.00" fill="#999999">boolean ∗</text>
<text text-anchor="start" x="785" y="-304" font-family="Arial" font-size="10.00">add_owner </text>
<text text-anchor="start" x="836" y="-304" font-family="Arial Italic" font-size="10.00" fill="#999999">boolean ∗</text>
<text text-anchor="start" x="785" y="-291" font-family="Arial" font-size="10.00">hashed_key </text>
<text text-anchor="start" x="841" y="-291" font-family="Arial Italic" font-size="10.00" fill="#999999">string ∗</text>
<text text-anchor="start" x="785" y="-278" font-family="Arial" font-size="10.00">index_rubygems </text>
<text text-anchor="start" x="860" y="-278" font-family="Arial Italic" font-size="10.00" fill="#999999">boolean ∗</text>
<text text-anchor="start" x="785" y="-265" font-family="Arial" font-size="10.00">last_accessed_at </text>
<text text-anchor="start" x="865" y="-265" font-family="Arial Italic" font-size="10.00" fill="#999999">datetime</text>
<text text-anchor="start" x="785" y="-252" font-family="Arial" font-size="10.00">mfa </text>
<text text-anchor="start" x="805" y="-252" font-family="Arial Italic" font-size="10.00" fill="#999999">boolean ∗</text>
<text text-anchor="start" x="785" y="-239" font-family="Arial" font-size="10.00">name </text>
<text text-anchor="start" x="813" y="-239" font-family="Arial Italic" font-size="10.00" fill="#999999">string ∗</text>
<text text-anchor="start" x="785" y="-226" font-family="Arial" font-size="10.00">push_rubygem </text>
<text text-anchor="start" x="852" y="-226" font-family="Arial Italic" font-size="10.00" fill="#999999">boolean ∗</text>
<text text-anchor="start" x="785" y="-213" font-family="Arial" font-size="10.00">remove_owner </text>
<text text-anchor="start" x="852" y="-213" font-family="Arial Italic" font-size="10.00" fill="#999999">boolean ∗</text>
<text text-anchor="start" x="785" y="-200" font-family="Arial" font-size="10.00">show_dashboard </text>
<text text-anchor="start" x="862" y="-200" font-family="Arial Italic" font-size="10.00" fill="#999999">boolean ∗</text>
<text text-anchor="start" x="785" y="-187" font-family="Arial" font-size="10.00">soft_deleted_at </text>
<text text-anchor="start" x="855" y="-187" font-family="Arial Italic" font-size="10.00" fill="#999999">datetime (6,0)</text>
<text text-anchor="start" x="785" y="-174" font-family="Arial" font-size="10.00">soft_deleted_rubygem_name </text>
<text text-anchor="start" x="914" y="-174" font-family="Arial Italic" font-size="10.00" fill="#999999">string</text>
<text text-anchor="start" x="785" y="-161" font-family="Arial" font-size="10.00">yank_rubygem </text>
<text text-anchor="start" x="852" y="-161" font-family="Arial Italic" font-size="10.00" fill="#999999">boolean ∗</text>
</g>
<!-- m_ApiKeyRubygemScope -->
<g id="node2" class="node">
<title>m_ApiKeyRubygemScope</title>
<path fill="none" stroke="black" d="M975,-7C975,-7 1095,-7 1095,-7 1101,-7 1107,-13 1107,-19 1107,-19 1107,-31 1107,-31 1107,-37 1101,-43 1095,-43 1095,-43 975,-43 975,-43 969,-43 963,-37 963,-31 963,-31 963,-19 963,-19 963,-13 969,-7 975,-7"/>
<text text-anchor="start" x="972" y="-22.2" font-family="Arial Bold" font-size="11.00">ApiKeyRubygemScope</text>
</g>
<!-- m_ApiKey&#45;&gt;m_ApiKeyRubygemScope -->
<g id="edge24" class="edge">
<title>m_ApiKey&#45;&gt;m_ApiKeyRubygemScope</title>
<path fill="none" stroke="black" d="M885.73,-151.41C909.73,-129.72 935.59,-106.78 960,-86 977.39,-71.19 997.65,-55.05 1012.72,-43.24"/>
</g>
<!-- m_Ownership -->
<g id="node10" class="node">
<title>m_Ownership</title>
<path fill="none" stroke="black" d="M987,-197C987,-197 1281,-197 1281,-197 1287,-197 1293,-203 1293,-209 1293,-209 1293,-273 1293,-273 1293,-279 1287,-285 1281,-285 1281,-285 987,-285 987,-285 981,-285 975,-279 975,-273 975,-273 975,-209 975,-209 975,-203 981,-197 987,-197"/>
<text text-anchor="start" x="1016.5" y="-238.2" font-family="Arial Bold" font-size="11.00">Ownership</text>
<polyline fill="none" stroke="black" points="1119,-197 1119,-285"/>
<text text-anchor="start" x="1126" y="-272" font-family="Arial" font-size="10.00">confirmed_at </text>
<text text-anchor="start" x="1186" y="-272" font-family="Arial Italic" font-size="10.00" fill="#999999">datetime</text>
<text text-anchor="start" x="1126" y="-259" font-family="Arial" font-size="10.00">owner_notifier </text>
<text text-anchor="start" x="1190" y="-259" font-family="Arial Italic" font-size="10.00" fill="#999999">boolean ∗</text>
<text text-anchor="start" x="1126" y="-246" font-family="Arial" font-size="10.00">ownership_request_notifier </text>
<text text-anchor="start" x="1246" y="-246" font-family="Arial Italic" font-size="10.00" fill="#999999">boolean ∗</text>
<text text-anchor="start" x="1126" y="-233" font-family="Arial" font-size="10.00">push_notifier </text>
<text text-anchor="start" x="1185" y="-233" font-family="Arial Italic" font-size="10.00" fill="#999999">boolean ∗</text>
<text text-anchor="start" x="1126" y="-220" font-family="Arial" font-size="10.00">token </text>
<text text-anchor="start" x="1154" y="-220" font-family="Arial Italic" font-size="10.00" fill="#999999">string</text>
<text text-anchor="start" x="1126" y="-207" font-family="Arial" font-size="10.00">token_expires_at </text>
<text text-anchor="start" x="1204" y="-207" font-family="Arial Italic" font-size="10.00" fill="#999999">datetime</text>
</g>
<!-- m_Delayed::Backend::ActiveRecord::Job -->
<g id="node3" class="node">
<title>m_Delayed::Backend::ActiveRecord::Job</title>
<path fill="none" stroke="black" d="M2272,-510.5C2272,-510.5 2604,-510.5 2604,-510.5 2610,-510.5 2616,-516.5 2616,-522.5 2616,-522.5 2616,-625.5 2616,-625.5 2616,-631.5 2610,-637.5 2604,-637.5 2604,-637.5 2272,-637.5 2272,-637.5 2266,-637.5 2260,-631.5 2260,-625.5 2260,-625.5 2260,-522.5 2260,-522.5 2260,-516.5 2266,-510.5 2272,-510.5"/>
<text text-anchor="start" x="2265" y="-571.2" font-family="Arial Bold" font-size="11.00">Delayed::Backend::ActiveRecord::Job</text>
<polyline fill="none" stroke="black" points="2472,-510.5 2472,-637.5"/>
<text text-anchor="start" x="2479" y="-624" font-family="Arial" font-size="10.00">attempts </text>
<text text-anchor="start" x="2521" y="-624" font-family="Arial Italic" font-size="10.00" fill="#999999">integer</text>
<text text-anchor="start" x="2479" y="-611" font-family="Arial" font-size="10.00">failed_at </text>
<text text-anchor="start" x="2519" y="-611" font-family="Arial Italic" font-size="10.00" fill="#999999">datetime</text>
<text text-anchor="start" x="2479" y="-598" font-family="Arial" font-size="10.00">handler </text>
<text text-anchor="start" x="2514" y="-598" font-family="Arial Italic" font-size="10.00" fill="#999999">text</text>
<text text-anchor="start" x="2479" y="-585" font-family="Arial" font-size="10.00">last_error </text>
<text text-anchor="start" x="2523" y="-585" font-family="Arial Italic" font-size="10.00" fill="#999999">text</text>
<text text-anchor="start" x="2479" y="-572" font-family="Arial" font-size="10.00">locked_at </text>
<text text-anchor="start" x="2525" y="-572" font-family="Arial Italic" font-size="10.00" fill="#999999">datetime</text>
<text text-anchor="start" x="2479" y="-559" font-family="Arial" font-size="10.00">locked_by </text>
<text text-anchor="start" x="2527" y="-559" font-family="Arial Italic" font-size="10.00" fill="#999999">string</text>
<text text-anchor="start" x="2479" y="-546" font-family="Arial" font-size="10.00">priority </text>
<text text-anchor="start" x="2512" y="-546" font-family="Arial Italic" font-size="10.00" fill="#999999">integer</text>
<text text-anchor="start" x="2479" y="-533" font-family="Arial" font-size="10.00">queue </text>
<text text-anchor="start" x="2509" y="-533" font-family="Arial Italic" font-size="10.00" fill="#999999">string</text>
<text text-anchor="start" x="2479" y="-520" font-family="Arial" font-size="10.00">run_at </text>
<text text-anchor="start" x="2510" y="-520" font-family="Arial Italic" font-size="10.00" fill="#999999">datetime</text>
</g>
<!-- m_Deletion -->
<g id="node4" class="node">
<title>m_Deletion</title>
<path fill="none" stroke="black" d="M329,-216.5C329,-216.5 593,-216.5 593,-216.5 599,-216.5 605,-222.5 605,-228.5 605,-228.5 605,-253.5 605,-253.5 605,-259.5 599,-265.5 593,-265.5 593,-265.5 329,-265.5 329,-265.5 323,-265.5 317,-259.5 317,-253.5 317,-253.5 317,-228.5 317,-228.5 317,-222.5 323,-216.5 329,-216.5"/>
<text text-anchor="start" x="365" y="-238.2" font-family="Arial Bold" font-size="11.00">Deletion</text>
<polyline fill="none" stroke="black" points="461,-216.5 461,-265.5"/>
<text text-anchor="start" x="468" y="-252" font-family="Arial" font-size="10.00">number </text>
<text text-anchor="start" x="504" y="-252" font-family="Arial Italic" font-size="10.00" fill="#999999">string ∗</text>
<text text-anchor="start" x="468" y="-239" font-family="Arial" font-size="10.00">platform </text>
<text text-anchor="start" x="507" y="-239" font-family="Arial Italic" font-size="10.00" fill="#999999">string</text>
<text text-anchor="start" x="468" y="-226" font-family="Arial" font-size="10.00">rubygem </text>
<text text-anchor="start" x="509" y="-226" font-family="Arial Italic" font-size="10.00" fill="#999999">string ∗</text>
</g>
<!-- m_Dependency -->
<g id="node5" class="node">
<title>m_Dependency</title>
<path fill="none" stroke="black" d="M2388,-0.5C2388,-0.5 2652,-0.5 2652,-0.5 2658,-0.5 2664,-6.5 2664,-12.5 2664,-12.5 2664,-37.5 2664,-37.5 2664,-43.5 2658,-49.5 2652,-49.5 2652,-49.5 2388,-49.5 2388,-49.5 2382,-49.5 2376,-43.5 2376,-37.5 2376,-37.5 2376,-12.5 2376,-12.5 2376,-6.5 2382,-0.5 2388,-0.5"/>
<text text-anchor="start" x="2413" y="-22.2" font-family="Arial Bold" font-size="11.00">Dependency</text>
<polyline fill="none" stroke="black" points="2520,-0.5 2520,-49.5"/>
<text text-anchor="start" x="2527" y="-36" font-family="Arial" font-size="10.00">requirements </text>
<text text-anchor="start" x="2587" y="-36" font-family="Arial Italic" font-size="10.00" fill="#999999">string (255) ∗</text>
<text text-anchor="start" x="2527" y="-23" font-family="Arial" font-size="10.00">scope </text>
<text text-anchor="start" x="2557" y="-23" font-family="Arial Italic" font-size="10.00" fill="#999999">string (255)</text>
<text text-anchor="start" x="2527" y="-10" font-family="Arial" font-size="10.00">unresolved_name </text>
<text text-anchor="start" x="2607" y="-10" font-family="Arial Italic" font-size="10.00" fill="#999999">string (255)</text>
</g>
<!-- m_GemDownload -->
<g id="node6" class="node">
<title>m_GemDownload</title>
<path fill="none" stroke="black" d="M2071,-7C2071,-7 2335,-7 2335,-7 2341,-7 2347,-13 2347,-19 2347,-19 2347,-31 2347,-31 2347,-37 2341,-43 2335,-43 2335,-43 2071,-43 2071,-43 2065,-43 2059,-37 2059,-31 2059,-31 2059,-19 2059,-19 2059,-13 2065,-7 2071,-7"/>
<text text-anchor="start" x="2090.5" y="-22.2" font-family="Arial Bold" font-size="11.00">GemDownload</text>
<polyline fill="none" stroke="black" points="2203,-7 2203,-43"/>
<text text-anchor="start" x="2210" y="-23" font-family="Arial" font-size="10.00">count </text>
<text text-anchor="start" x="2238" y="-23" font-family="Arial Italic" font-size="10.00" fill="#999999">integer (8)</text>
</g>
<!-- m_GemTypoException -->
<g id="node7" class="node">
<title>m_GemTypoException</title>
<path fill="none" stroke="black" d="M2657,-556C2657,-556 2921,-556 2921,-556 2927,-556 2933,-562 2933,-568 2933,-568 2933,-580 2933,-580 2933,-586 2927,-592 2921,-592 2921,-592 2657,-592 2657,-592 2651,-592 2645,-586 2645,-580 2645,-580 2645,-568 2645,-568 2645,-562 2651,-556 2657,-556"/>
<text text-anchor="start" x="2663.5" y="-571.2" font-family="Arial Bold" font-size="11.00">GemTypoException</text>
<polyline fill="none" stroke="black" points="2789,-556 2789,-592"/>
<text text-anchor="start" x="2796" y="-579" font-family="Arial" font-size="10.00">info </text>
<text text-anchor="start" x="2815" y="-579" font-family="Arial Italic" font-size="10.00" fill="#999999">text</text>
<text text-anchor="start" x="2796" y="-566" font-family="Arial" font-size="10.00">name </text>
<text text-anchor="start" x="2824" y="-566" font-family="Arial Italic" font-size="10.00" fill="#999999">string ∗ U</text>
</g>
<!-- m_Linkset -->
<g id="node8" class="node">
<title>m_Linkset</title>
<path fill="none" stroke="black" d="M2618,-197C2618,-197 2882,-197 2882,-197 2888,-197 2894,-203 2894,-209 2894,-209 2894,-273 2894,-273 2894,-279 2888,-285 2882,-285 2882,-285 2618,-285 2618,-285 2612,-285 2606,-279 2606,-273 2606,-273 2606,-209 2606,-209 2606,-203 2612,-197 2618,-197"/>
<text text-anchor="start" x="2656.5" y="-238.2" font-family="Arial Bold" font-size="11.00">Linkset</text>
<polyline fill="none" stroke="black" points="2750,-197 2750,-285"/>
<text text-anchor="start" x="2757" y="-272" font-family="Arial" font-size="10.00">bugs </text>
<text text-anchor="start" x="2782" y="-272" font-family="Arial Italic" font-size="10.00" fill="#999999">string (255)</text>
<text text-anchor="start" x="2757" y="-259" font-family="Arial" font-size="10.00">code </text>
<text text-anchor="start" x="2782" y="-259" font-family="Arial Italic" font-size="10.00" fill="#999999">string (255)</text>
<text text-anchor="start" x="2757" y="-246" font-family="Arial" font-size="10.00">docs </text>
<text text-anchor="start" x="2782" y="-246" font-family="Arial Italic" font-size="10.00" fill="#999999">string (255)</text>
<text text-anchor="start" x="2757" y="-233" font-family="Arial" font-size="10.00">home </text>
<text text-anchor="start" x="2785" y="-233" font-family="Arial Italic" font-size="10.00" fill="#999999">string (255)</text>
<text text-anchor="start" x="2757" y="-220" font-family="Arial" font-size="10.00">mail </text>
<text text-anchor="start" x="2779" y="-220" font-family="Arial Italic" font-size="10.00" fill="#999999">string (255)</text>
<text text-anchor="start" x="2757" y="-207" font-family="Arial" font-size="10.00">wiki </text>
<text text-anchor="start" x="2778" y="-207" font-family="Arial Italic" font-size="10.00" fill="#999999">string (255)</text>
</g>
<!-- m_LogTicket -->
<g id="node9" class="node">
<title>m_LogTicket</title>
<path fill="none" stroke="black" d="M2974,-536.5C2974,-536.5 3238,-536.5 3238,-536.5 3244,-536.5 3250,-542.5 3250,-548.5 3250,-548.5 3250,-599.5 3250,-599.5 3250,-605.5 3244,-611.5 3238,-611.5 3238,-611.5 2974,-611.5 2974,-611.5 2968,-611.5 2962,-605.5 2962,-599.5 2962,-599.5 2962,-548.5 2962,-548.5 2962,-542.5 2968,-536.5 2974,-536.5"/>
<text text-anchor="start" x="3006" y="-571.2" font-family="Arial Bold" font-size="11.00">LogTicket</text>
<polyline fill="none" stroke="black" points="3106,-536.5 3106,-611.5"/>
<text text-anchor="start" x="3113" y="-598" font-family="Arial" font-size="10.00">backend </text>
<text text-anchor="start" x="3153" y="-598" font-family="Arial Italic" font-size="10.00" fill="#999999">integer</text>
<text text-anchor="start" x="3113" y="-585" font-family="Arial" font-size="10.00">directory </text>
<text text-anchor="start" x="3154" y="-585" font-family="Arial Italic" font-size="10.00" fill="#999999">string</text>
<text text-anchor="start" x="3113" y="-572" font-family="Arial" font-size="10.00">key </text>
<text text-anchor="start" x="3132" y="-572" font-family="Arial Italic" font-size="10.00" fill="#999999">string</text>
<text text-anchor="start" x="3113" y="-559" font-family="Arial" font-size="10.00">processed_count </text>
<text text-anchor="start" x="3191" y="-559" font-family="Arial Italic" font-size="10.00" fill="#999999">integer</text>
<text text-anchor="start" x="3113" y="-546" font-family="Arial" font-size="10.00">status </text>
<text text-anchor="start" x="3144" y="-546" font-family="Arial Italic" font-size="10.00" fill="#999999">string</text>
</g>
<!-- m_Ownership&#45;&gt;m_ApiKeyRubygemScope -->
<g id="edge22" class="edge">
<title>m_Ownership&#45;&gt;m_ApiKeyRubygemScope</title>
<path fill="none" stroke="black" d="M1114.08,-196.95C1093.94,-153.41 1063.47,-87.54 1046.85,-51.61"/>
<polygon fill="black" stroke="black" points="1049.57,-49.99 1042.93,-43.15 1043.85,-52.64 1049.57,-49.99"/>
</g>
<!-- m_OwnershipCall -->
<g id="node11" class="node">
<title>m_OwnershipCall</title>
<path fill="none" stroke="black" d="M1393,-223C1393,-223 1657,-223 1657,-223 1663,-223 1669,-229 1669,-235 1669,-235 1669,-247 1669,-247 1669,-253 1663,-259 1657,-259 1657,-259 1393,-259 1393,-259 1387,-259 1381,-253 1381,-247 1381,-247 1381,-235 1381,-235 1381,-229 1387,-223 1393,-223"/>
<text text-anchor="start" x="1412.5" y="-238.2" font-family="Arial Bold" font-size="11.00">OwnershipCall</text>
<polyline fill="none" stroke="black" points="1525,-223 1525,-259"/>
<text text-anchor="start" x="1532" y="-246" font-family="Arial" font-size="10.00">note </text>
<text text-anchor="start" x="1554" y="-246" font-family="Arial Italic" font-size="10.00" fill="#999999">text ∗</text>
<text text-anchor="start" x="1532" y="-233" font-family="Arial" font-size="10.00">status </text>
<text text-anchor="start" x="1563" y="-233" font-family="Arial Italic" font-size="10.00" fill="#999999">boolean ∗</text>
</g>
<!-- m_OwnershipRequest -->
<g id="node12" class="node">
<title>m_OwnershipRequest</title>
<path fill="none" stroke="black" d="M1299,-7C1299,-7 1563,-7 1563,-7 1569,-7 1575,-13 1575,-19 1575,-19 1575,-31 1575,-31 1575,-37 1569,-43 1563,-43 1563,-43 1299,-43 1299,-43 1293,-43 1287,-37 1287,-31 1287,-31 1287,-19 1287,-19 1287,-13 1293,-7 1299,-7"/>
<text text-anchor="start" x="1307" y="-22.2" font-family="Arial Bold" font-size="11.00">OwnershipRequest</text>
<polyline fill="none" stroke="black" points="1431,-7 1431,-43"/>
<text text-anchor="start" x="1438" y="-30" font-family="Arial" font-size="10.00">note </text>
<text text-anchor="start" x="1460" y="-30" font-family="Arial Italic" font-size="10.00" fill="#999999">text ∗</text>
<text text-anchor="start" x="1438" y="-17" font-family="Arial" font-size="10.00">status </text>
<text text-anchor="start" x="1469" y="-17" font-family="Arial Italic" font-size="10.00" fill="#999999">integer (2) ∗</text>
</g>
<!-- m_OwnershipCall&#45;&gt;m_OwnershipRequest -->
<g id="edge21" class="edge">
<title>m_OwnershipCall&#45;&gt;m_OwnershipRequest</title>
<path fill="none" stroke="black" d="M1517.47,-222.85C1501,-185.36 1461.73,-95.95 1442.29,-51.7"/>
<polygon fill="black" stroke="black" points="1445.07,-50.21 1438.57,-43.23 1439.3,-52.74 1445.07,-50.21"/>
</g>
<!-- m_Rubygem -->
<g id="node13" class="node">
<title>m_Rubygem</title>
<path fill="none" stroke="black" d="M1955,-549.5C1955,-549.5 2219,-549.5 2219,-549.5 2225,-549.5 2231,-555.5 2231,-561.5 2231,-561.5 2231,-586.5 2231,-586.5 2231,-592.5 2225,-598.5 2219,-598.5 2219,-598.5 1955,-598.5 1955,-598.5 1949,-598.5 1943,-592.5 1943,-586.5 1943,-586.5 1943,-561.5 1943,-561.5 1943,-555.5 1949,-549.5 1955,-549.5"/>
<text text-anchor="start" x="1987.5" y="-571.2" font-family="Arial Bold" font-size="11.00">Rubygem</text>
<polyline fill="none" stroke="black" points="2087,-549.5 2087,-598.5"/>
<text text-anchor="start" x="2094" y="-585" font-family="Arial" font-size="10.00">indexed </text>
<text text-anchor="start" x="2131" y="-585" font-family="Arial Italic" font-size="10.00" fill="#999999">boolean ∗</text>
<text text-anchor="start" x="2094" y="-572" font-family="Arial" font-size="10.00">name </text>
<text text-anchor="start" x="2122" y="-572" font-family="Arial Italic" font-size="10.00" fill="#999999">string (255) ∗ U</text>
<text text-anchor="start" x="2094" y="-559" font-family="Arial" font-size="10.00">slug </text>
<text text-anchor="start" x="2116" y="-559" font-family="Arial Italic" font-size="10.00" fill="#999999">string (255)</text>
</g>
<!-- m_Rubygem&#45;&gt;m_Dependency -->
<g id="edge23" class="edge">
<title>m_Rubygem&#45;&gt;m_Dependency</title>
<path fill="none" stroke="black" d="M2104.7,-549.49C2131.22,-516.36 2184.74,-457.17 2246,-432 2314.24,-403.96 2858.27,-449.56 2909,-396 3003.75,-295.97 2998.69,-190.59 2909,-86 2878.43,-50.35 2768.56,-35.69 2673.35,-29.75"/>
<polygon fill="black" stroke="black" points="2673.36,-26.6 2664.18,-29.2 2672.98,-32.88 2673.36,-26.6"/>
</g>
<!-- m_Rubygem&#45;&gt;m_GemDownload -->
<g id="edge18" class="edge">
<title>m_Rubygem&#45;&gt;m_GemDownload</title>
<path fill="none" stroke="black" d="M2203,-240C2176.83,-171.05 2191.25,-80.36 2199.04,-43.1"/>
</g>
<!-- m_Rubygem&#45;&gt;m_Linkset -->
<g id="edge17" class="edge">
<title>m_Rubygem&#45;&gt;m_Linkset</title>
<path fill="none" stroke="black" d="M2105.32,-549.35C2132.2,-516.61 2185.72,-458.53 2246,-432 2387.51,-369.72 2452,-461.59 2592,-396 2644.9,-371.22 2690.84,-321.31 2719.34,-285.01"/>
</g>
<!-- m_Rubygem&#45;&gt;m_Ownership -->
<g id="edge16" class="edge">
<title>m_Rubygem&#45;&gt;m_Ownership</title>
<path fill="none" stroke="black" d="M1942.72,-552.63C1793.68,-528.18 1556.63,-479.62 1366,-396 1303.51,-368.59 1239.41,-324.59 1194.46,-290.63"/>
<polygon fill="black" stroke="black" points="1196.21,-288 1187.14,-285.06 1192.39,-293.01 1196.21,-288"/>
</g>
<!-- m_Rubygem&#45;&gt;m_OwnershipCall -->
<g id="edge19" class="edge">
<title>m_Rubygem&#45;&gt;m_OwnershipCall</title>
<path fill="none" stroke="black" d="M2012.77,-549.37C1928.73,-520.65 1789.77,-467.07 1684,-396 1627.66,-358.14 1573.37,-299.21 1545.12,-266.31"/>
<polygon fill="black" stroke="black" points="1547.4,-264.13 1539.17,-259.31 1542.6,-268.21 1547.4,-264.13"/>
</g>
<!-- m_Rubygem&#45;&gt;m_OwnershipRequest -->
<g id="edge20" class="edge">
<title>m_Rubygem&#45;&gt;m_OwnershipRequest</title>
<path fill="none" stroke="black" d="M2203,-240C2178.29,-174.88 2225.78,-132.58 2174,-86 2131.19,-47.49 1788.78,-33.52 1584.04,-28.59"/>
<polygon fill="black" stroke="black" points="1584.08,-25.44 1575.01,-28.38 1583.93,-31.74 1584.08,-25.44"/>
<path fill="none" stroke="black" d="M2107.1,-549.17C2150.63,-494.53 2246.32,-356.15 2203,-242"/>
</g>
<!-- m_Subscription -->
<g id="node15" class="node">
<title>m_Subscription</title>
<path fill="none" stroke="black" d="M2027,-223C2027,-223 2147,-223 2147,-223 2153,-223 2159,-229 2159,-235 2159,-235 2159,-247 2159,-247 2159,-253 2153,-259 2147,-259 2147,-259 2027,-259 2027,-259 2021,-259 2015,-253 2015,-247 2015,-247 2015,-235 2015,-235 2015,-229 2021,-223 2027,-223"/>
<text text-anchor="start" x="2051" y="-238.2" font-family="Arial Bold" font-size="11.00">Subscription</text>
</g>
<!-- m_Rubygem&#45;&gt;m_Subscription -->
<g id="edge15" class="edge">
<title>m_Rubygem&#45;&gt;m_Subscription</title>
<path fill="none" stroke="black" d="M2087,-549.46C2087,-489.46 2087,-331.09 2087,-268.24"/>
<polygon fill="black" stroke="black" points="2090.15,-268.01 2087,-259.01 2083.85,-268.01 2090.15,-268.01"/>
</g>
<!-- m_Version -->
<g id="node18" class="node">
<title>m_Version</title>
<path fill="none" stroke="black" d="M2259,-86.5C2259,-86.5 2565,-86.5 2565,-86.5 2571,-86.5 2577,-92.5 2577,-98.5 2577,-98.5 2577,-383.5 2577,-383.5 2577,-389.5 2571,-395.5 2565,-395.5 2565,-395.5 2259,-395.5 2259,-395.5 2253,-395.5 2247,-389.5 2247,-383.5 2247,-383.5 2247,-98.5 2247,-98.5 2247,-92.5 2253,-86.5 2259,-86.5"/>
<text text-anchor="start" x="2297" y="-238.2" font-family="Arial Bold" font-size="11.00">Version</text>
<polyline fill="none" stroke="black" points="2391,-86.5 2391,-395.5"/>
<text text-anchor="start" x="2398" y="-382" font-family="Arial" font-size="10.00">authors </text>
<text text-anchor="start" x="2434" y="-382" font-family="Arial Italic" font-size="10.00" fill="#999999">text</text>
<text text-anchor="start" x="2398" y="-369" font-family="Arial" font-size="10.00">built_at </text>
<text text-anchor="start" x="2433" y="-369" font-family="Arial Italic" font-size="10.00" fill="#999999">datetime</text>
<text text-anchor="start" x="2398" y="-356" font-family="Arial" font-size="10.00">canonical_number </text>
<text text-anchor="start" x="2480" y="-356" font-family="Arial Italic" font-size="10.00" fill="#999999">string</text>
<text text-anchor="start" x="2398" y="-343" font-family="Arial" font-size="10.00">cert_chain </text>
<text text-anchor="start" x="2447" y="-343" font-family="Arial Italic" font-size="10.00" fill="#999999">text</text>
<text text-anchor="start" x="2398" y="-330" font-family="Arial" font-size="10.00">description </text>
<text text-anchor="start" x="2449" y="-330" font-family="Arial Italic" font-size="10.00" fill="#999999">text</text>
<text text-anchor="start" x="2398" y="-317" font-family="Arial" font-size="10.00">full_name </text>
<text text-anchor="start" x="2444" y="-317" font-family="Arial Italic" font-size="10.00" fill="#999999">string (255) ∗ U</text>
<text text-anchor="start" x="2398" y="-304" font-family="Arial" font-size="10.00">indexed </text>
<text text-anchor="start" x="2435" y="-304" font-family="Arial Italic" font-size="10.00" fill="#999999">boolean</text>
<text text-anchor="start" x="2398" y="-291" font-family="Arial" font-size="10.00">info_checksum </text>
<text text-anchor="start" x="2468" y="-291" font-family="Arial Italic" font-size="10.00" fill="#999999">string</text>
<text text-anchor="start" x="2398" y="-278" font-family="Arial" font-size="10.00">latest </text>
<text text-anchor="start" x="2426" y="-278" font-family="Arial Italic" font-size="10.00" fill="#999999">boolean</text>
<text text-anchor="start" x="2398" y="-265" font-family="Arial" font-size="10.00">licenses </text>
<text text-anchor="start" x="2438" y="-265" font-family="Arial Italic" font-size="10.00" fill="#999999">string (255)</text>
<text text-anchor="start" x="2398" y="-252" font-family="Arial" font-size="10.00">metadata </text>
<text text-anchor="start" x="2442" y="-252" font-family="Arial Italic" font-size="10.00" fill="#999999">hstore ∗</text>
<text text-anchor="start" x="2398" y="-239" font-family="Arial" font-size="10.00">number </text>
<text text-anchor="start" x="2434" y="-239" font-family="Arial Italic" font-size="10.00" fill="#999999">string (255)</text>
<text text-anchor="start" x="2398" y="-226" font-family="Arial" font-size="10.00">platform </text>
<text text-anchor="start" x="2437" y="-226" font-family="Arial Italic" font-size="10.00" fill="#999999">string (255)</text>
<text text-anchor="start" x="2398" y="-213" font-family="Arial" font-size="10.00">position </text>
<text text-anchor="start" x="2435" y="-213" font-family="Arial Italic" font-size="10.00" fill="#999999">integer</text>
<text text-anchor="start" x="2398" y="-200" font-family="Arial" font-size="10.00">prerelease </text>
<text text-anchor="start" x="2447" y="-200" font-family="Arial Italic" font-size="10.00" fill="#999999">boolean</text>
<text text-anchor="start" x="2398" y="-187" font-family="Arial" font-size="10.00">required_ruby_version </text>
<text text-anchor="start" x="2497" y="-187" font-family="Arial Italic" font-size="10.00" fill="#999999">string (255)</text>
<text text-anchor="start" x="2398" y="-174" font-family="Arial" font-size="10.00">required_rubygems_version </text>
<text text-anchor="start" x="2521" y="-174" font-family="Arial Italic" font-size="10.00" fill="#999999">string (255)</text>
<text text-anchor="start" x="2398" y="-161" font-family="Arial" font-size="10.00">requirements </text>
<text text-anchor="start" x="2458" y="-161" font-family="Arial Italic" font-size="10.00" fill="#999999">text</text>
<text text-anchor="start" x="2398" y="-148" font-family="Arial" font-size="10.00">sha256 </text>
<text text-anchor="start" x="2433" y="-148" font-family="Arial Italic" font-size="10.00" fill="#999999">string (255)</text>
<text text-anchor="start" x="2398" y="-135" font-family="Arial" font-size="10.00">size </text>
<text text-anchor="start" x="2420" y="-135" font-family="Arial Italic" font-size="10.00" fill="#999999">integer</text>
<text text-anchor="start" x="2398" y="-122" font-family="Arial" font-size="10.00">summary </text>
<text text-anchor="start" x="2442" y="-122" font-family="Arial Italic" font-size="10.00" fill="#999999">text</text>
<text text-anchor="start" x="2398" y="-109" font-family="Arial" font-size="10.00">yanked_at </text>
<text text-anchor="start" x="2447" y="-109" font-family="Arial Italic" font-size="10.00" fill="#999999">datetime</text>
<text text-anchor="start" x="2398" y="-96" font-family="Arial" font-size="10.00">yanked_info_checksum </text>
<text text-anchor="start" x="2504" y="-96" font-family="Arial Italic" font-size="10.00" fill="#999999">string</text>
</g>
<!-- m_Rubygem&#45;&gt;m_Version -->
<g id="edge4" class="edge">
<title>m_Rubygem&#45;&gt;m_Version</title>
<path fill="none" stroke="black" d="M2110.11,-549.46C2140.9,-518.1 2198.07,-459.88 2254.44,-402.47"/>
<polygon fill="black" stroke="black" points="2256.9,-404.46 2260.95,-395.83 2252.4,-400.05 2256.9,-404.46"/>
</g>
<!-- m_WebHook -->
<g id="node19" class="node">
<title>m_WebHook</title>
<path fill="none" stroke="black" d="M1710,-223C1710,-223 1974,-223 1974,-223 1980,-223 1986,-229 1986,-235 1986,-235 1986,-247 1986,-247 1986,-253 1980,-259 1974,-259 1974,-259 1710,-259 1710,-259 1704,-259 1698,-253 1698,-247 1698,-247 1698,-235 1698,-235 1698,-229 1704,-223 1710,-223"/>
<text text-anchor="start" x="1742" y="-238.2" font-family="Arial Bold" font-size="11.00">WebHook</text>
<polyline fill="none" stroke="black" points="1842,-223 1842,-259"/>
<text text-anchor="start" x="1849" y="-246" font-family="Arial" font-size="10.00">failure_count </text>
<text text-anchor="start" x="1908" y="-246" font-family="Arial Italic" font-size="10.00" fill="#999999">integer</text>
<text text-anchor="start" x="1849" y="-233" font-family="Arial" font-size="10.00">url </text>
<text text-anchor="start" x="1863" y="-233" font-family="Arial Italic" font-size="10.00" fill="#999999">string ∗</text>
</g>
<!-- m_Rubygem&#45;&gt;m_WebHook -->
<g id="edge3" class="edge">
<title>m_Rubygem&#45;&gt;m_WebHook</title>
<path fill="none" stroke="black" d="M2069.58,-549.46C2024.71,-488.84 1905.53,-327.82 1860.01,-266.34"/>
<polygon fill="black" stroke="black" points="1862.47,-264.37 1854.59,-259.01 1857.41,-268.12 1862.47,-264.37"/>
</g>
<!-- m_SendgridEvent -->
<g id="node14" class="node">
<title>m_SendgridEvent</title>
<path fill="none" stroke="black" d="M3291,-530C3291,-530 3555,-530 3555,-530 3561,-530 3567,-536 3567,-542 3567,-542 3567,-606 3567,-606 3567,-612 3561,-618 3555,-618 3555,-618 3291,-618 3291,-618 3285,-618 3279,-612 3279,-606 3279,-606 3279,-542 3279,-542 3279,-536 3285,-530 3291,-530"/>
<text text-anchor="start" x="3309.5" y="-571.2" font-family="Arial Bold" font-size="11.00">SendgridEvent</text>
<polyline fill="none" stroke="black" points="3423,-530 3423,-618"/>
<text text-anchor="start" x="3430" y="-605" font-family="Arial" font-size="10.00">email </text>
<text text-anchor="start" x="3457" y="-605" font-family="Arial Italic" font-size="10.00" fill="#999999">string</text>
<text text-anchor="start" x="3430" y="-592" font-family="Arial" font-size="10.00">event_type </text>
<text text-anchor="start" x="3482" y="-592" font-family="Arial Italic" font-size="10.00" fill="#999999">string</text>
<text text-anchor="start" x="3430" y="-579" font-family="Arial" font-size="10.00">occurred_at </text>
<text text-anchor="start" x="3485" y="-579" font-family="Arial Italic" font-size="10.00" fill="#999999">datetime</text>
<text text-anchor="start" x="3430" y="-566" font-family="Arial" font-size="10.00">payload </text>
<text text-anchor="start" x="3467" y="-566" font-family="Arial Italic" font-size="10.00" fill="#999999">jsonb ∗</text>
<text text-anchor="start" x="3430" y="-553" font-family="Arial" font-size="10.00">sendgrid_id </text>
<text text-anchor="start" x="3483" y="-553" font-family="Arial Italic" font-size="10.00" fill="#999999">string ∗</text>
<text text-anchor="start" x="3430" y="-540" font-family="Arial" font-size="10.00">status </text>
<text text-anchor="start" x="3461" y="-540" font-family="Arial Italic" font-size="10.00" fill="#999999">string ∗</text>
</g>
<!-- m_User -->
<g id="node16" class="node">
<title>m_User</title>
<path fill="none" stroke="black" d="M984.5,-432.5C984.5,-432.5 1283.5,-432.5 1283.5,-432.5 1289.5,-432.5 1295.5,-438.5 1295.5,-444.5 1295.5,-444.5 1295.5,-703.5 1295.5,-703.5 1295.5,-709.5 1289.5,-715.5 1283.5,-715.5 1283.5,-715.5 984.5,-715.5 984.5,-715.5 978.5,-715.5 972.5,-709.5 972.5,-703.5 972.5,-703.5 972.5,-444.5 972.5,-444.5 972.5,-438.5 978.5,-432.5 984.5,-432.5"/>
<text text-anchor="start" x="1030" y="-571.2" font-family="Arial Bold" font-size="11.00">User</text>
<polyline fill="none" stroke="black" points="1116.5,-432.5 1116.5,-715.5"/>
<text text-anchor="start" x="1124" y="-702" font-family="Arial" font-size="10.00">api_key </text>
<text text-anchor="start" x="1161" y="-702" font-family="Arial Italic" font-size="10.00" fill="#999999">string</text>
<text text-anchor="start" x="1124" y="-689" font-family="Arial" font-size="10.00">blocked_email </text>
<text text-anchor="start" x="1190" y="-689" font-family="Arial Italic" font-size="10.00" fill="#999999">string</text>
<text text-anchor="start" x="1124" y="-676" font-family="Arial" font-size="10.00">confirmation_token </text>
<text text-anchor="start" x="1210" y="-676" font-family="Arial Italic" font-size="10.00" fill="#999999">string (128)</text>
<text text-anchor="start" x="1124" y="-663" font-family="Arial" font-size="10.00">email </text>
<text text-anchor="start" x="1151" y="-663" font-family="Arial Italic" font-size="10.00" fill="#999999">string ∗ U</text>
<text text-anchor="start" x="1124" y="-650" font-family="Arial" font-size="10.00">email_confirmed </text>
<text text-anchor="start" x="1199" y="-650" font-family="Arial Italic" font-size="10.00" fill="#999999">boolean ∗</text>
<text text-anchor="start" x="1124" y="-637" font-family="Arial" font-size="10.00">email_reset </text>
<text text-anchor="start" x="1178" y="-637" font-family="Arial Italic" font-size="10.00" fill="#999999">boolean</text>
<text text-anchor="start" x="1124" y="-624" font-family="Arial" font-size="10.00">encrypted_password </text>
<text text-anchor="start" x="1218" y="-624" font-family="Arial Italic" font-size="10.00" fill="#999999">string (128)</text>
<text text-anchor="start" x="1124" y="-611" font-family="Arial" font-size="10.00">handle </text>
<text text-anchor="start" x="1156" y="-611" font-family="Arial Italic" font-size="10.00" fill="#999999">string U</text>
<text text-anchor="start" x="1124" y="-598" font-family="Arial" font-size="10.00">hide_email </text>
<text text-anchor="start" x="1174" y="-598" font-family="Arial Italic" font-size="10.00" fill="#999999">boolean</text>
<text text-anchor="start" x="1124" y="-585" font-family="Arial" font-size="10.00">mail_fails </text>
<text text-anchor="start" x="1169" y="-585" font-family="Arial Italic" font-size="10.00" fill="#999999">integer</text>
<text text-anchor="start" x="1124" y="-572" font-family="Arial" font-size="10.00">mfa_level </text>
<text text-anchor="start" x="1170" y="-572" font-family="Arial Italic" font-size="10.00" fill="#999999">integer</text>
<text text-anchor="start" x="1124" y="-559" font-family="Arial" font-size="10.00">mfa_recovery_codes </text>
<text text-anchor="start" x="1218" y="-559" font-family="Arial Italic" font-size="10.00" fill="#999999">string</text>
<text text-anchor="start" x="1124" y="-546" font-family="Arial" font-size="10.00">mfa_seed </text>
<text text-anchor="start" x="1170" y="-546" font-family="Arial Italic" font-size="10.00" fill="#999999">string</text>
<text text-anchor="start" x="1124" y="-533" font-family="Arial" font-size="10.00">remember_token </text>
<text text-anchor="start" x="1200" y="-533" font-family="Arial Italic" font-size="10.00" fill="#999999">string (128)</text>
<text text-anchor="start" x="1124" y="-520" font-family="Arial" font-size="10.00">remember_token_expires_at </text>
<text text-anchor="start" x="1251" y="-520" font-family="Arial Italic" font-size="10.00" fill="#999999">datetime</text>
<text text-anchor="start" x="1124" y="-507" font-family="Arial" font-size="10.00">salt </text>
<text text-anchor="start" x="1143" y="-507" font-family="Arial Italic" font-size="10.00" fill="#999999">string (128)</text>
<text text-anchor="start" x="1124" y="-494" font-family="Arial" font-size="10.00">token </text>
<text text-anchor="start" x="1152" y="-494" font-family="Arial Italic" font-size="10.00" fill="#999999">string (128)</text>
<text text-anchor="start" x="1124" y="-481" font-family="Arial" font-size="10.00">token_expires_at </text>
<text text-anchor="start" x="1202" y="-481" font-family="Arial Italic" font-size="10.00" fill="#999999">datetime</text>
<text text-anchor="start" x="1124" y="-468" font-family="Arial" font-size="10.00">twitter_username </text>
<text text-anchor="start" x="1203" y="-468" font-family="Arial Italic" font-size="10.00" fill="#999999">string</text>
<text text-anchor="start" x="1124" y="-455" font-family="Arial" font-size="10.00">unconfirmed_email </text>
<text text-anchor="start" x="1209" y="-455" font-family="Arial Italic" font-size="10.00" fill="#999999">string</text>
<text text-anchor="start" x="1124" y="-442" font-family="Arial" font-size="10.00">webauthn_id </text>
<text text-anchor="start" x="1182" y="-442" font-family="Arial Italic" font-size="10.00" fill="#999999">string</text>
</g>
<!-- m_User&#45;&gt;m_ApiKey -->
<g id="edge12" class="edge">
<title>m_User&#45;&gt;m_ApiKey</title>
<path fill="none" stroke="black" d="M987.61,-432.15C954.32,-400.11 919.72,-366.82 888.95,-337.21"/>
<polygon fill="black" stroke="black" points="891.12,-334.92 882.45,-330.95 886.75,-339.46 891.12,-334.92"/>
</g>
<!-- m_User&#45;&gt;m_Deletion -->
<g id="edge11" class="edge">
<title>m_User&#45;&gt;m_Deletion</title>
<path fill="none" stroke="black" d="M972.49,-537.14C866.74,-509.06 728.39,-463.34 619,-396 564.49,-362.44 513.82,-307.07 485.2,-272.67"/>
<polygon fill="black" stroke="black" points="487.59,-270.61 479.44,-265.66 482.72,-274.61 487.59,-270.61"/>
</g>
<!-- m_User&#45;&gt;m_Ownership -->
<g id="edge8" class="edge">
<title>m_User&#45;&gt;m_Ownership</title>
<path fill="none" stroke="black" d="M1134,-432.15C1134,-383.32 1134,-331.57 1134,-294.4"/>
<polygon fill="black" stroke="black" points="1137.15,-294.28 1134,-285.28 1130.85,-294.28 1137.15,-294.28"/>
</g>
<!-- m_User&#45;&gt;m_OwnershipCall -->
<g id="edge13" class="edge">
<title>m_User&#45;&gt;m_OwnershipCall</title>
<path fill="none" stroke="black" d="M1295.69,-448.39C1317.2,-431.06 1338.79,-413.28 1359,-396 1410.95,-351.59 1468.9,-296.48 1500.74,-265.68"/>
<polygon fill="black" stroke="black" points="1503.23,-267.65 1507.5,-259.12 1498.85,-263.13 1503.23,-267.65"/>
</g>
<!-- m_User&#45;&gt;m_OwnershipRequest -->
<g id="edge14" class="edge">
<title>m_User&#45;&gt;m_OwnershipRequest</title>
<path fill="none" stroke="black" d="M1284.38,-432.41C1292.81,-420.66 1300.49,-408.48 1307,-396 1371.89,-271.66 1297.93,-208.63 1366,-86 1373.9,-71.77 1386.4,-59.03 1398.34,-49"/>
<polygon fill="black" stroke="black" points="1400.62,-51.21 1405.66,-43.11 1396.67,-46.3 1400.62,-51.21"/>
</g>
<!-- m_User&#45;&gt;m_Subscription -->
<g id="edge10" class="edge">
<title>m_User&#45;&gt;m_Subscription</title>
<path fill="none" stroke="black" d="M1295.79,-547.45C1530.74,-509.22 1944.62,-437.23 2001,-396 2044.79,-363.97 2069.16,-302.52 2080.02,-267.71"/>
<polygon fill="black" stroke="black" points="2083.04,-268.58 2082.61,-259.05 2077.01,-266.77 2083.04,-268.58"/>
</g>
<!-- m_User&#45;&gt;m_Version -->
<g id="edge7" class="edge">
<title>m_User&#45;&gt;m_Version</title>
<path fill="none" stroke="black" d="M1295.73,-541.65C1456.07,-511.2 1708.91,-464.88 1929,-432 2060.07,-412.42 2103.19,-448.21 2225,-396 2229.59,-394.03 2234.16,-391.92 2238.69,-389.67"/>
<polygon fill="black" stroke="black" points="2240.26,-392.4 2246.82,-385.49 2237.38,-386.8 2240.26,-392.4"/>
</g>
<!-- m_User&#45;&gt;m_WebHook -->
<g id="edge2" class="edge">
<title>m_User&#45;&gt;m_WebHook</title>
<path fill="none" stroke="black" d="M1295.72,-541.67C1409.93,-514.75 1563.48,-468.57 1684,-396 1742.42,-360.82 1796,-300.09 1823.22,-266.36"/>
<polygon fill="black" stroke="black" points="1825.78,-268.2 1828.93,-259.2 1820.86,-264.27 1825.78,-268.2"/>
</g>
<!-- m_WebauthnCredential -->
<g id="node20" class="node">
<title>m_WebauthnCredential</title>
<path fill="none" stroke="black" d="M12,-210C12,-210 276,-210 276,-210 282,-210 288,-216 288,-222 288,-222 288,-260 288,-260 288,-266 282,-272 276,-272 276,-272 12,-272 12,-272 6,-272 0,-266 0,-260 0,-260 0,-222 0,-222 0,-216 6,-210 12,-210"/>
<text text-anchor="start" x="16" y="-238.2" font-family="Arial Bold" font-size="11.00">WebauthnCredential</text>
<polyline fill="none" stroke="black" points="144,-210 144,-272"/>
<text text-anchor="start" x="151" y="-259" font-family="Arial" font-size="10.00">external_id </text>
<text text-anchor="start" x="202" y="-259" font-family="Arial Italic" font-size="10.00" fill="#999999">string ∗ U</text>
<text text-anchor="start" x="151" y="-246" font-family="Arial" font-size="10.00">nickname </text>
<text text-anchor="start" x="197" y="-246" font-family="Arial Italic" font-size="10.00" fill="#999999">string ∗</text>
<text text-anchor="start" x="151" y="-233" font-family="Arial" font-size="10.00">public_key </text>
<text text-anchor="start" x="201" y="-233" font-family="Arial Italic" font-size="10.00" fill="#999999">string ∗</text>
<text text-anchor="start" x="151" y="-220" font-family="Arial" font-size="10.00">sign_count </text>
<text text-anchor="start" x="202" y="-220" font-family="Arial Italic" font-size="10.00" fill="#999999">integer (8) ∗</text>
</g>
<!-- m_User&#45;&gt;m_WebauthnCredential -->
<g id="edge1" class="edge">
<title>m_User&#45;&gt;m_WebauthnCredential</title>
<path fill="none" stroke="black" d="M972.42,-565.17C797.81,-550.86 515.89,-510.39 302,-396 248.39,-367.33 200.53,-315.02 171.89,-279.4"/>
<polygon fill="black" stroke="black" points="174.13,-277.16 166.07,-272.06 169.2,-281.07 174.13,-277.16"/>
</g>
<!-- m_User::WithPrivateFields -->
<g id="node17" class="node">
<title>m_User::WithPrivateFields</title>
<path fill="none" stroke="black" d="M3608.5,-432.5C3608.5,-432.5 3907.5,-432.5 3907.5,-432.5 3913.5,-432.5 3919.5,-438.5 3919.5,-444.5 3919.5,-444.5 3919.5,-703.5 3919.5,-703.5 3919.5,-709.5 3913.5,-715.5 3907.5,-715.5 3907.5,-715.5 3608.5,-715.5 3608.5,-715.5 3602.5,-715.5 3596.5,-709.5 3596.5,-703.5 3596.5,-703.5 3596.5,-444.5 3596.5,-444.5 3596.5,-438.5 3602.5,-432.5 3608.5,-432.5"/>
<text text-anchor="start" x="3604" y="-571.2" font-family="Arial Bold" font-size="11.00">User::WithPrivateFields</text>
<polyline fill="none" stroke="black" points="3740.5,-432.5 3740.5,-715.5"/>
<text text-anchor="start" x="3748" y="-702" font-family="Arial" font-size="10.00">api_key </text>
<text text-anchor="start" x="3785" y="-702" font-family="Arial Italic" font-size="10.00" fill="#999999">string</text>
<text text-anchor="start" x="3748" y="-689" font-family="Arial" font-size="10.00">blocked_email </text>
<text text-anchor="start" x="3814" y="-689" font-family="Arial Italic" font-size="10.00" fill="#999999">string</text>
<text text-anchor="start" x="3748" y="-676" font-family="Arial" font-size="10.00">confirmation_token </text>
<text text-anchor="start" x="3834" y="-676" font-family="Arial Italic" font-size="10.00" fill="#999999">string (128)</text>
<text text-anchor="start" x="3748" y="-663" font-family="Arial" font-size="10.00">email </text>
<text text-anchor="start" x="3775" y="-663" font-family="Arial Italic" font-size="10.00" fill="#999999">string ∗ U</text>
<text text-anchor="start" x="3748" y="-650" font-family="Arial" font-size="10.00">email_confirmed </text>
<text text-anchor="start" x="3823" y="-650" font-family="Arial Italic" font-size="10.00" fill="#999999">boolean ∗</text>
<text text-anchor="start" x="3748" y="-637" font-family="Arial" font-size="10.00">email_reset </text>
<text text-anchor="start" x="3802" y="-637" font-family="Arial Italic" font-size="10.00" fill="#999999">boolean</text>
<text text-anchor="start" x="3748" y="-624" font-family="Arial" font-size="10.00">encrypted_password </text>
<text text-anchor="start" x="3842" y="-624" font-family="Arial Italic" font-size="10.00" fill="#999999">string (128)</text>
<text text-anchor="start" x="3748" y="-611" font-family="Arial" font-size="10.00">handle </text>
<text text-anchor="start" x="3780" y="-611" font-family="Arial Italic" font-size="10.00" fill="#999999">string U</text>
<text text-anchor="start" x="3748" y="-598" font-family="Arial" font-size="10.00">hide_email </text>
<text text-anchor="start" x="3798" y="-598" font-family="Arial Italic" font-size="10.00" fill="#999999">boolean</text>
<text text-anchor="start" x="3748" y="-585" font-family="Arial" font-size="10.00">mail_fails </text>
<text text-anchor="start" x="3793" y="-585" font-family="Arial Italic" font-size="10.00" fill="#999999">integer</text>
<text text-anchor="start" x="3748" y="-572" font-family="Arial" font-size="10.00">mfa_level </text>
<text text-anchor="start" x="3794" y="-572" font-family="Arial Italic" font-size="10.00" fill="#999999">integer</text>
<text text-anchor="start" x="3748" y="-559" font-family="Arial" font-size="10.00">mfa_recovery_codes </text>
<text text-anchor="start" x="3842" y="-559" font-family="Arial Italic" font-size="10.00" fill="#999999">string</text>
<text text-anchor="start" x="3748" y="-546" font-family="Arial" font-size="10.00">mfa_seed </text>
<text text-anchor="start" x="3794" y="-546" font-family="Arial Italic" font-size="10.00" fill="#999999">string</text>
<text text-anchor="start" x="3748" y="-533" font-family="Arial" font-size="10.00">remember_token </text>
<text text-anchor="start" x="3824" y="-533" font-family="Arial Italic" font-size="10.00" fill="#999999">string (128)</text>
<text text-anchor="start" x="3748" y="-520" font-family="Arial" font-size="10.00">remember_token_expires_at </text>
<text text-anchor="start" x="3875" y="-520" font-family="Arial Italic" font-size="10.00" fill="#999999">datetime</text>
<text text-anchor="start" x="3748" y="-507" font-family="Arial" font-size="10.00">salt </text>
<text text-anchor="start" x="3767" y="-507" font-family="Arial Italic" font-size="10.00" fill="#999999">string (128)</text>
<text text-anchor="start" x="3748" y="-494" font-family="Arial" font-size="10.00">token </text>
<text text-anchor="start" x="3776" y="-494" font-family="Arial Italic" font-size="10.00" fill="#999999">string (128)</text>
<text text-anchor="start" x="3748" y="-481" font-family="Arial" font-size="10.00">token_expires_at </text>
<text text-anchor="start" x="3826" y="-481" font-family="Arial Italic" font-size="10.00" fill="#999999">datetime</text>
<text text-anchor="start" x="3748" y="-468" font-family="Arial" font-size="10.00">twitter_username </text>
<text text-anchor="start" x="3827" y="-468" font-family="Arial Italic" font-size="10.00" fill="#999999">string</text>
<text text-anchor="start" x="3748" y="-455" font-family="Arial" font-size="10.00">unconfirmed_email </text>
<text text-anchor="start" x="3833" y="-455" font-family="Arial Italic" font-size="10.00" fill="#999999">string</text>
<text text-anchor="start" x="3748" y="-442" font-family="Arial" font-size="10.00">webauthn_id </text>
<text text-anchor="start" x="3806" y="-442" font-family="Arial Italic" font-size="10.00" fill="#999999">string</text>
</g>
<!-- m_Version&#45;&gt;m_Dependency -->
<g id="edge5" class="edge">
<title>m_Version&#45;&gt;m_Dependency</title>
<path fill="none" stroke="black" d="M2489.48,-86.47C2494.79,-75.96 2499.72,-66.19 2504,-57.71"/>
<polygon fill="black" stroke="black" points="2506.81,-59.12 2508.06,-49.67 2501.19,-56.28 2506.81,-59.12"/>
</g>
<!-- m_Version&#45;&gt;m_GemDownload -->
<g id="edge6" class="edge">
<title>m_Version&#45;&gt;m_GemDownload</title>
<path fill="none" stroke="black" d="M2262.05,-86.47C2245.37,-69.38 2230.61,-54.27 2220.01,-43.42"/>
</g>
</g>
</svg>
